<svg width="655" height="657" viewBox="0 0 655 657" fill="none" xmlns="http://www.w3.org/2000/svg">
<mask id="mask0_341_593" style="mask-type:alpha" maskUnits="userSpaceOnUse" x="4" y="0" width="651" height="649">
<mask id="path-1-outside-1_341_593" maskUnits="userSpaceOnUse" x="3.71094" y="-0.5" width="651" height="650" fill="black">
<rect fill="white" x="3.71094" y="-0.5" width="651" height="650"/>
<path d="M329.641 162.061L350.068 0.5L349.909 163.337L390.445 5.60362L370.017 167.165L430.024 15.6514L389.488 173.545L468.007 30.6432L407.841 182.157L503.756 50.2603L425.077 193.162L536.632 74.343L440.876 206.08L566.475 102.253L454.761 220.913L592.489 133.673L466.73 237.499L614.353 168.122L476.625 255.362L631.749 204.964L484.126 274.341L644.356 243.719L489.233 294.118L652.017 283.751L491.786 314.213L654.57 324.42L491.786 334.628L652.017 365.09L489.233 354.883L644.356 405.121L484.126 374.659L631.749 444.036L476.625 393.638L614.353 480.878L466.73 411.501L592.489 515.328L454.761 427.928L566.475 546.747L440.876 442.76L536.632 574.657L425.077 455.838L503.756 598.58L407.841 466.684L468.007 618.197L389.488 475.455L430.024 633.189L370.017 481.676L390.445 643.396L349.909 485.503L350.068 648.5L329.641 486.779L309.213 648.5L309.213 485.503L268.676 643.396L289.264 481.676L229.257 633.189L269.794 475.455L191.274 618.197L251.44 466.684L155.526 598.58L234.205 455.838L122.49 574.657L218.405 442.76L92.8058 546.747L204.52 427.928L66.7923 515.328L192.551 411.501L44.9282 480.878L182.656 393.638L27.5326 444.036L175.155 374.659L14.9248 405.121L170.048 354.883L7.26441 365.09L167.495 334.628L4.71094 324.42L167.495 314.213L7.26441 283.751L170.048 294.118L14.9248 243.719L175.155 274.341L27.5326 204.964L182.656 255.362L44.9282 168.122L192.551 237.499L66.7923 133.673L204.52 220.913L92.8058 102.253L218.405 206.08L122.49 74.343L234.205 193.162L155.526 50.2603L251.44 182.157L191.274 30.6432L269.794 173.545L229.257 15.6514L289.264 167.165L268.676 5.60362L309.213 163.337V0.5L329.641 162.061Z"/>
</mask>
<path d="M329.641 162.061L350.068 0.5L349.909 163.337L390.445 5.60362L370.017 167.165L430.024 15.6514L389.488 173.545L468.007 30.6432L407.841 182.157L503.756 50.2603L425.077 193.162L536.632 74.343L440.876 206.08L566.475 102.253L454.761 220.913L592.489 133.673L466.73 237.499L614.353 168.122L476.625 255.362L631.749 204.964L484.126 274.341L644.356 243.719L489.233 294.118L652.017 283.751L491.786 314.213L654.57 324.42L491.786 334.628L652.017 365.09L489.233 354.883L644.356 405.121L484.126 374.659L631.749 444.036L476.625 393.638L614.353 480.878L466.73 411.501L592.489 515.328L454.761 427.928L566.475 546.747L440.876 442.76L536.632 574.657L425.077 455.838L503.756 598.58L407.841 466.684L468.007 618.197L389.488 475.455L430.024 633.189L370.017 481.676L390.445 643.396L349.909 485.503L350.068 648.5L329.641 486.779L309.213 648.5L309.213 485.503L268.676 643.396L289.264 481.676L229.257 633.189L269.794 475.455L191.274 618.197L251.44 466.684L155.526 598.58L234.205 455.838L122.49 574.657L218.405 442.76L92.8058 546.747L204.52 427.928L66.7923 515.328L192.551 411.501L44.9282 480.878L182.656 393.638L27.5326 444.036L175.155 374.659L14.9248 405.121L170.048 354.883L7.26441 365.09L167.495 334.628L4.71094 324.42L167.495 314.213L7.26441 283.751L170.048 294.118L14.9248 243.719L175.155 274.341L27.5326 204.964L182.656 255.362L44.9282 168.122L192.551 237.499L66.7923 133.673L204.52 220.913L92.8058 102.253L218.405 206.08L122.49 74.343L234.205 193.162L155.526 50.2603L251.44 182.157L191.274 30.6432L269.794 173.545L229.257 15.6514L289.264 167.165L268.676 5.60362L309.213 163.337V0.5L329.641 162.061Z" stroke="black" stroke-width="2" stroke-miterlimit="10" mask="url(#path-1-outside-1_341_593)"/>
</mask>
<g mask="url(#mask0_341_593)">
<rect x="-822.721" y="-37.6172" width="1152.83" height="702.852" rx="45" fill="black"/>
</g>
</svg>
